<svg width="30" height="36" viewBox="0 0 30 36" fill="none" xmlns="http://www.w3.org/2000/svg">
<path d="M24.5358 19.0927C24.5847 24.3802 29.1747 26.1399 29.2253 26.1624C29.1865 26.2862 28.4921 28.6701 26.8074 31.1319C25.3511 33.2604 23.8394 35.381 21.4586 35.4254C19.1192 35.4682 18.3668 34.0377 15.6919 34.0377C13.0177 34.0377 12.1822 35.381 9.96731 35.4682C7.66894 35.5554 5.91872 33.1661 4.45031 31.0458C1.44994 26.7078 -0.843096 18.7875 2.23575 13.4412C3.76519 10.7862 6.49894 9.1052 9.46584 9.06188C11.7226 9.01885 13.8528 10.5801 15.2323 10.5801C16.611 10.5801 19.1996 8.70245 21.921 8.97807C23.0603 9.0256 26.2582 9.4382 28.3116 12.4442C28.1465 12.5469 24.4961 14.672 24.5358 19.0927ZM20.139 6.10848C21.3591 4.63163 22.1803 2.57513 21.9564 0.529602C20.1975 0.600196 18.0707 1.70157 16.8093 3.17785C15.6787 4.48482 14.6887 6.57732 14.9556 8.58235C16.9162 8.73423 18.9187 7.58616 20.139 6.10848Z" fill="black"/>
</svg>
