<svg width="32" height="32" viewBox="0 0 32 32" fill="none" xmlns="http://www.w3.org/2000/svg">
<g clip-path="url(#clip0_1446_38)">
<path d="M7.09187 19.338L5.978 23.4962L1.90681 23.5823C0.690125 21.3257 0 18.7437 0 16C0 13.3468 0.64525 10.8448 1.789 8.64172H1.78987L5.41437 9.30622L7.00212 12.909C6.66981 13.8778 6.48869 14.9178 6.48869 16C6.48881 17.1745 6.70156 18.2998 7.09187 19.338Z" fill="#FBBB00"/>
<path d="M31.7204 13.011C31.9042 13.9789 32 14.9784 32 16C32 17.1455 31.8796 18.2629 31.6501 19.3407C30.8712 23.0084 28.8361 26.211 26.0167 28.4774L26.0159 28.4765L21.4506 28.2435L20.8045 24.2101C22.6752 23.113 24.1372 21.396 24.9074 19.3407H16.3517V13.011H31.7204Z" fill="#518EF8"/>
<path d="M26.0158 28.4765L26.0167 28.4774C23.2747 30.6813 19.7916 32 16 32C9.9068 32 4.60924 28.5943 1.9068 23.5824L7.09186 19.3381C8.44305 22.9442 11.9217 25.5113 16 25.5113C17.7529 25.5113 19.3952 25.0374 20.8044 24.2101L26.0158 28.4765Z" fill="#28B446"/>
<path d="M26.2127 3.6835L21.0294 7.927C19.571 7.01538 17.847 6.48875 16 6.48875C11.8294 6.48875 8.28569 9.17356 7.00219 12.909L1.78988 8.64175H1.789C4.45188 3.50769 9.81625 0 16 0C19.8822 0 23.4417 1.38288 26.2127 3.6835Z" fill="#F14336"/>
</g>
<defs>
<clipPath id="clip0_1446_38">
<rect width="32" height="32" fill="white"/>
</clipPath>
</defs>
</svg>
