<svg width="22" height="22" viewBox="0 0 22 22" fill="none" xmlns="http://www.w3.org/2000/svg">
<path fill-rule="evenodd" clip-rule="evenodd" d="M9.26061 7.11208C7.58353 7.44808 5.75011 8.20175 5.75011 9.25V11H16.2501V9.25C16.2501 8.20175 14.4167 7.44808 12.7396 7.11208C12.1003 6.98375 11.4843 6.91667 11.0001 6.91667C10.5159 6.91667 9.89995 6.98433 9.26061 7.11208ZM15.0834 9.83333V9.3165C15.0419 9.26673 14.9949 9.22173 14.9434 9.18233C14.727 9.00733 14.3659 8.81483 13.8794 8.63517C12.9064 8.277 11.7293 8.08333 11.0001 8.08333C10.2709 8.08333 9.09378 8.277 8.12078 8.63517C7.63428 8.81425 7.2732 9.00733 7.05678 9.18233C7.00529 9.22173 6.95833 9.26673 6.91678 9.3165V9.83333H15.0834ZM9.45428 5.89117C9.90228 6.17117 10.4325 6.33333 11.0001 6.33333C11.5677 6.33333 12.0974 6.17117 12.5459 5.89117C12.9656 5.62888 13.3116 5.26413 13.5514 4.83123C13.7913 4.39834 13.917 3.91155 13.9168 3.41667C13.9168 1.8055 12.6113 0.5 11.0001 0.5C9.38895 0.5 8.08345 1.8055 8.08345 3.41667C8.08345 4.46083 8.6312 5.3755 9.45428 5.89117ZM11.0001 5.16667C11.9673 5.16667 12.7501 4.38383 12.7501 3.41667C12.7501 2.4495 11.9673 1.66667 11.0001 1.66667C10.0329 1.66667 9.25011 2.4495 9.25011 3.41667C9.25011 4.38383 10.0329 5.16667 11.0001 5.16667ZM11.5834 15.5296V16.9068C12.1321 17.0502 12.6098 17.3883 12.9273 17.8581C13.2449 18.3278 13.3806 18.8971 13.3092 19.4596C13.2378 20.0221 12.964 20.5394 12.5391 20.9149C12.1142 21.2904 11.5671 21.4983 11.0001 21.5C10.4318 21.5006 9.8828 21.2937 9.45619 20.9182C9.02958 20.5427 8.75467 20.0244 8.68307 19.4606C8.61147 18.8968 8.74809 18.3263 9.0673 17.8561C9.38651 17.3859 9.86636 17.0484 10.4168 16.9068V15.5296H3.41678V16.9068C3.9654 17.0502 4.44309 17.3883 4.76066 17.8581C5.07824 18.3278 5.21397 18.8971 5.14253 19.4596C5.07109 20.0221 4.79736 20.5394 4.37244 20.9149C3.94753 21.2904 3.40048 21.4983 2.83345 21.5C2.26513 21.5006 1.71614 21.2937 1.28952 20.9182C0.86291 20.5427 0.588003 20.0244 0.516401 19.4606C0.444799 18.8968 0.581426 18.3263 0.900636 17.8561C1.21985 17.3859 1.69969 17.0484 2.25011 16.9068V15.5296C2.25011 15.2202 2.37303 14.9234 2.59182 14.7046C2.81062 14.4858 3.10736 14.3629 3.41678 14.3629H10.4168V12.1667H11.5834V14.3629H18.5834C18.8929 14.3629 19.1896 14.4858 19.4084 14.7046C19.6272 14.9234 19.7501 15.2202 19.7501 15.5296V16.9068C20.2987 17.0502 20.7764 17.3883 21.094 17.8581C21.4116 18.3278 21.5473 18.8971 21.4759 19.4596C21.4044 20.0221 21.1307 20.5394 20.7058 20.9149C20.2809 21.2904 19.7338 21.4983 19.1668 21.5C18.5985 21.5006 18.0495 21.2937 17.6229 20.9182C17.1962 20.5427 16.9213 20.0244 16.8497 19.4606C16.7781 18.8968 16.9148 18.3263 17.234 17.8561C17.5532 17.3859 18.033 17.0484 18.5834 16.9068V15.5296H11.5834ZM19.1668 18C18.8574 18 18.5606 18.1229 18.3418 18.3417C18.123 18.5605 18.0001 18.8572 18.0001 19.1667C18.0001 19.4761 18.123 19.7728 18.3418 19.9916C18.5606 20.2104 18.8574 20.3333 19.1668 20.3333C19.4762 20.3333 19.7729 20.2104 19.9917 19.9916C20.2105 19.7728 20.3334 19.4761 20.3334 19.1667C20.3334 18.8572 20.2105 18.5605 19.9917 18.3417C19.7729 18.1229 19.4762 18 19.1668 18ZM2.83345 18C2.52403 18 2.22728 18.1229 2.00849 18.3417C1.7897 18.5605 1.66678 18.8572 1.66678 19.1667C1.66678 19.4761 1.7897 19.7728 2.00849 19.9916C2.22728 20.2104 2.52403 20.3333 2.83345 20.3333C3.14287 20.3333 3.43961 20.2104 3.65841 19.9916C3.8772 19.7728 4.00011 19.4761 4.00011 19.1667C4.00011 18.8572 3.8772 18.5605 3.65841 18.3417C3.43961 18.1229 3.14287 18 2.83345 18ZM11.0001 20.3333C11.3095 20.3333 11.6063 20.2104 11.8251 19.9916C12.0439 19.7728 12.1668 19.4761 12.1668 19.1667C12.1668 18.8572 12.0439 18.5605 11.8251 18.3417C11.6063 18.1229 11.3095 18 11.0001 18C10.6907 18 10.3939 18.1229 10.1752 18.3417C9.95636 18.5605 9.83345 18.8572 9.83345 19.1667C9.83345 19.4761 9.95636 19.7728 10.1752 19.9916C10.3939 20.2104 10.6907 20.3333 11.0001 20.3333Z" fill="#21729F"/>
</svg>
